<?xml version="1.0" encoding="UTF-8"?><svg id="Layer_1" xmlns="http://www.w3.org/2000/svg" viewBox="0 0 579.34 359.76"><rect x="182.47" y=".5" width="192.35" height="308.42" rx="8.1" ry="8.1" style="fill:#fff; stroke:#000; stroke-miterlimit:10;"/><rect x=".5" y="3.79" width="136.88" height="26.98" rx="5.03" ry="5.03" style="stroke:#000; stroke-miterlimit:10;"/><rect x="190.25" y="8.64" width="176.8" height="162.52" rx="3.8" ry="3.8" style="fill:#e6e6e6;"/><rect x="188.43" y="185.8" width="176.8" height="24.7" rx="3.8" ry="3.8" style="fill:#e6e6e6;"/><rect x="188.95" y="221.46" width="152.13" height="24.7" rx="3.8" ry="3.8" style="fill:#e6e6e6;"/><rect x=".5" y="44.74" width="176.8" height="24.7" rx="3.8" ry="3.8" style="fill:#e6e6e6;"/><rect x="1.02" y="80.4" width="152.13" height="24.7" rx="3.8" ry="3.8" style="fill:#e6e6e6;"/><rect x=".5" y="319.86" width="578.45" height="39.9" rx="3.8" ry="3.8" style="fill:#e6e6e6;"/><rect x="188.95" y="257.12" width="89.48" height="30.01" rx="5.03" ry="5.03" style="stroke:#000; stroke-miterlimit:10;"/><rect x="197.66" y="267.2" width="29.99" height="9.85" rx=".99" ry=".99" style="fill:#e6e6e6;"/><rect x="234.4" y="267.2" width="37.92" height="9.85" rx=".99" ry=".99" style="fill:#e6e6e6;"/><path d="M190.75,11.02l175.75,160.13M366.49,11.02l-175.74,160.14" style="fill:none; stroke:#000;"/><rect x="386.49" y=".5" width="192.35" height="308.42" rx="8.1" ry="8.1" style="fill:#fff; stroke:#000; stroke-miterlimit:10;"/><rect x="394.27" y="8.64" width="176.8" height="162.52" rx="3.8" ry="3.8" style="fill:#e6e6e6;"/><rect x="392.45" y="185.8" width="176.8" height="24.7" rx="3.8" ry="3.8" style="fill:#e6e6e6;"/><rect x="392.98" y="221.46" width="152.69" height="24.7" rx="3.8" ry="3.8" style="fill:#e6e6e6;"/><path d="M394.77,11.02l175.75,160.13M570.52,11.02l-175.75,160.13" style="fill:none; stroke:#000;"/><rect x="1.02" y="150.09" width="107.6" height="17.73" rx="5.03" ry="5.03" style="stroke:#000; stroke-miterlimit:10;"/><rect x="1.02" y="181.79" width="176.8" height="24.7" rx="3.8" ry="3.8" style="fill:#e6e6e6;"/><rect x="1.54" y="217.45" width="152.13" height="24.7" rx="3.8" ry="3.8" style="fill:#e6e6e6;"/><path d="M550.55,326.53h23v26.55h-23c-2.76,0-5-2.24-5-5v-16.55c0-2.76,2.24-5,5-5Z" transform="translate(1119.09 679.62) rotate(180)" style="fill:none; stroke:#7e8580; stroke-miterlimit:10;"/><rect x="517.3" y="326.53" width="28" height="26.55" transform="translate(1062.6 679.62) rotate(180)" style="fill:none; stroke:#7e8580; stroke-miterlimit:10;"/><path d="M494.3,326.53h23v26.55h-23c-2.76,0-5-2.24-5-5v-16.55c0-2.76,2.24-5,5-5Z" style="fill:#fff; stroke:#000; stroke-miterlimit:10;"/><polygon points="497.61 337.36 503.33 333.94 508.99 337.36 508.99 343.17 503.46 346.64 497.61 343.28 497.61 337.36" style="fill:none; stroke:#000; stroke-miterlimit:10;"/><path d="M503.3,340.73l5.69-3.37-5.69,3.37Z" style="fill:none; stroke:#000; stroke-miterlimit:10;"/><polyline points="503.46 346.64 503.3 340.73 497.61 337.36" style="fill:none; stroke:#000; stroke-miterlimit:10;"/><line x1="525.76" y1="335.88" x2="536.84" y2="335.88" style="fill:none; stroke:gray; stroke-miterlimit:10;"/><line x1="525.76" y1="338.83" x2="536.84" y2="338.83" style="fill:none; stroke:gray; stroke-miterlimit:10;"/><line x1="525.76" y1="341.72" x2="536.84" y2="341.72" style="fill:none; stroke:gray; stroke-miterlimit:10;"/><line x1="525.76" y1="344.71" x2="536.84" y2="344.71" style="fill:none; stroke:gray; stroke-miterlimit:10;"/><polyline points="556.1 336.74 552.63 340.15 556.1 343.51" style="fill:none; stroke:gray; stroke-miterlimit:10;"/><line x1="561.09" y1="334.83" x2="557.9" y2="345.75" style="fill:none; stroke:gray; stroke-miterlimit:10;"/><polyline points="562.77 336.74 566.46 340.12 562.77 343.51" style="fill:none; stroke:gray; stroke-miterlimit:10;"/><rect x="393.69" y="257.12" width="89.48" height="30.01" rx="5.03" ry="5.03" style="stroke:#000; stroke-miterlimit:10;"/><rect x="402.4" y="267.2" width="29.99" height="9.85" rx=".99" ry=".99" style="fill:#e6e6e6;"/><rect x="439.14" y="267.2" width="37.92" height="9.85" rx=".99" ry=".99" style="fill:#e6e6e6;"/></svg>